<svg class="svg-kolibri-logo" viewBox="0 0 121 28" version="1.1" xmlns="http://www.w3.org/2000/svg" xmlns:xlink="http://www.w3.org/1999/xlink">
    <g class="kolibri-logo" stroke="none" stroke-width="1" fill="#25424C" fill-rule="evenodd">
        <path class="letter i-2" d="M115.929762,7.93303571 L119.696429,7.93303571 L119.696429,25.9110119 L115.929762,25.9110119 L115.929762,7.93303571 Z"></path>
        <path class="letter i-dot-2" d="M117.813095,1.00684524 C116.578571,1.00684524 115.578571,2.00684524 115.578571,3.24136905 C115.578571,4.47529762 116.578571,5.47589286 117.813095,5.47589286 C119.047024,5.47589286 120.047619,4.47529762 120.047619,3.24136905 C120.047619,2.00684524 119.047024,1.00684524 117.813095,1.00684524"></path>
        <path class="letter r" d="M107.019048,14.8133929 L107.019048,25.9104167 L110.780952,25.9104167 L110.780952,14.8133929 C110.780952,13.09375 112.180357,11.6943452 113.9,11.6943452 L113.9,7.93303571 C110.1,7.93303571 107.019048,11.0133929 107.019048,14.8133929"></path>
        <path class="letter b" d="M95.8708333,7.52172619 C93.7357143,7.52172619 91.772619,8.24196429 90.1946429,9.44196429 L90.1946429,1.4610119 L86.4279762,1.4610119 L86.4279762,25.9104167 L90.1946429,25.9104167 L90.1946429,24.4014881 C91.772619,25.6014881 93.7357143,26.3217262 95.8708333,26.3217262 C101.0625,26.3217262 105.270833,22.1127976 105.270833,16.9217262 C105.270833,11.7300595 101.0625,7.52172619 95.8708333,7.52172619 Z M95.8708333,22.5550595 C92.764881,22.5550595 90.2375,20.0276786 90.2375,16.9217262 C90.2375,13.8151786 92.764881,11.2883929 95.8708333,11.2883929 C98.977381,11.2883929 101.504167,13.8151786 101.504167,16.9217262 C101.504167,20.0276786 98.977381,22.5550595 95.8708333,22.5550595 Z"></path>
        <path class="letter i-1" d="M79.1678571,7.93303571 L82.9345238,7.93303571 L82.9345238,25.9110119 L79.1678571,25.9110119 L79.1678571,7.93303571 Z"></path>
        <path class="letter i-dot-1" d="M81.0511905,1.00684524 C79.8172619,1.00684524 78.8166667,2.00684524 78.8166667,3.24136905 C78.8166667,4.47529762 79.8172619,5.47589286 81.0511905,5.47589286 C82.285119,5.47589286 83.2857143,4.47529762 83.2857143,3.24136905 C83.2857143,2.00684524 82.285119,1.00684524 81.0511905,1.00684524"></path>
        <path class="letter l" d="M71.9077381,1.4610119 L75.6744048,1.4610119 L75.6744048,25.9110119 L71.9077381,25.9110119 L71.9077381,1.4610119 Z"></path>
        <path class="letter o" d="M60.572619,7.52172619 C55.3809524,7.52172619 51.172619,11.7300595 51.172619,16.9217262 C51.172619,22.1127976 55.3809524,26.3217262 60.572619,26.3217262 C65.7642857,26.3217262 69.972619,22.1127976 69.972619,16.9217262 C69.972619,11.7300595 65.7642857,7.52172619 60.572619,7.52172619 Z M60.572619,11.2883929 C63.6785714,11.2883929 66.2059524,13.8151786 66.2059524,16.9217262 C66.2059524,20.0276786 63.6785714,22.5550595 60.572619,22.5550595 C57.4666667,22.5550595 54.9392857,20.0276786 54.9392857,16.9217262 C54.9392857,13.8151786 57.4666667,11.2883929 60.572619,11.2883929 Z"></path>
        <path class="letter k" d="M48.2595238,25.9104167 L40.8970238,15.5002976 L37.1303571,19.7122024 L37.1303571,25.9104167 L33.1577381,25.9104167 L33.1577381,3.10446429 L37.1303571,3.10446429 L37.1303571,14.5074405 L47.3005952,3.10446429 L52.1291667,3.10446429 L43.6369048,12.5895833 L53.0190476,25.9104167 L48.2595238,25.9104167"></path>
        <path class="icon " d="M1,12.3955357 C4.53035714,15.9258929 10.2535714,15.9258929 13.7833333,12.396131 L19.1845238,6.99494048 C19.3863095,6.79315476 19.7136905,6.79315476 19.9154762,6.99494048 C20.1172619,7.19672619 20.1172619,7.52410714 19.9154762,7.72589286 L14.5142857,13.1270833 C10.9845238,16.6574405 10.985119,22.3806548 14.514881,25.9104167 L23.1119048,17.3139881 C26.8434524,13.5818452 26.8434524,7.53065476 23.1119048,3.79910714 C19.3797619,0.0669642857 13.3285714,0.0669642857 9.59702381,3.79910714 L1,12.3955357 Z"></path>
    </g>
</svg>